<?xml version="1.0" encoding="UTF-8" standalone="no"?>
<svg
   xmlns:dc="http://purl.org/dc/elements/1.1/"
   xmlns:cc="http://creativecommons.org/ns#"
   xmlns:rdf="http://www.w3.org/1999/02/22-rdf-syntax-ns#"
   xmlns:svg="http://www.w3.org/2000/svg"
   xmlns="http://www.w3.org/2000/svg"
   xmlns:sodipodi="http://sodipodi.sourceforge.net/DTD/sodipodi-0.dtd"
   xmlns:inkscape="http://www.inkscape.org/namespaces/inkscape"
   inkscape:version="1.0 (6e3e5246a0, 2020-05-07)"
   sodipodi:docname="suggest_info.svg"
   version="1.1"
   viewBox="0 0 920.29689 567.13633"
   height="567.13633"
   width="920.29689"
   data-name="Layer 1"
   id="fbe6a470-e545-4a3c-ab88-8fc38f19e601">
  <metadata
     id="metadata1129">
    <rdf:RDF>
      <cc:Work
         rdf:about="">
        <dc:format>image/svg+xml</dc:format>
        <dc:type
           rdf:resource="http://purl.org/dc/dcmitype/StillImage" />
        <dc:title></dc:title>
      </cc:Work>
    </rdf:RDF>
  </metadata>
  <defs
     id="defs1127" />
  <sodipodi:namedview
     inkscape:current-layer="fbe6a470-e545-4a3c-ab88-8fc38f19e601"
     inkscape:window-maximized="1"
     inkscape:window-y="27"
     inkscape:window-x="0"
     inkscape:cy="283.56818"
     inkscape:cx="460.14844"
     inkscape:zoom="0.95078015"
     showgrid="false"
     id="namedview1125"
     inkscape:window-height="1016"
     inkscape:window-width="1920"
     inkscape:pageshadow="2"
     inkscape:pageopacity="0"
     guidetolerance="10"
     gridtolerance="10"
     objecttolerance="10"
     borderopacity="1"
     bordercolor="#666666"
     pagecolor="#ffffff" />
  <path
     id="path1046"
     fill="#e6e6e6"
     transform="translate(-139.85155 -166.43184)"
     d="M1050.23779,538.70137H409.64889a9.92188,9.92188,0,0,1-9.91066-9.91066V176.34249a9.92187,9.92187,0,0,1,9.91066-9.91065h640.5889a9.92187,9.92187,0,0,1,9.91066,9.91065V528.79071A9.92188,9.92188,0,0,1,1050.23779,538.70137Z" />
  <path
     id="path1048"
     fill="#ffffff"
     transform="translate(-139.85155,-166.43184)"
     d="M 1036.7233,525.18683 H 423.16343 a 9.92186,9.92186 0 0 1 -9.91066,-9.91065 V 189.857 a 9.92187,9.92187 0 0 1 9.91066,-9.91066 h 613.55987 a 9.92187,9.92187 0 0 1 9.9106,9.91066 v 325.41918 a 9.92186,9.92186 0 0 1 -9.9106,9.91065 z" />
  <g id="block">
    <animate attributeType="CSS" attributeName="opacity" from="1" to="0" dur="5s" fill="freeze" id="blockhide" begin="0;blockshow.end+2s"/>
    <animate attributeType="CSS" attributeName="opacity" from="0" to="1" dur="5s" fill="freeze" id="blockshow" begin="blockhide.end+2s"/>

    <path
       d="M594.85176,380.73573H479.42023a4.81528,4.81528,0,0,1-4.80963-4.80962V255.7089a4.81529,4.81529,0,0,1,4.80963-4.80963H594.85176a4.81529,4.81529,0,0,1,4.80963,4.80963V375.92611A4.81529,4.81529,0,0,1,594.85176,380.73573ZM479.42023,252.82312a2.88893,2.88893,0,0,0-2.88578,2.88578V375.92611a2.88892,2.88892,0,0,0,2.88578,2.88577H594.85176a2.88893,2.88893,0,0,0,2.88578-2.88577V255.7089a2.88894,2.88894,0,0,0-2.88578-2.88578Z"
       transform="translate(-139.85155 -166.43184)"
       fill="#3f3d56"
       id="path1050" />
    <path
       d="M787.65911,380.73573H672.22757a4.81529,4.81529,0,0,1-4.80963-4.80962V255.7089a4.81529,4.81529,0,0,1,4.80963-4.80963H787.65911a4.81529,4.81529,0,0,1,4.80963,4.80963V375.92611A4.81529,4.81529,0,0,1,787.65911,380.73573ZM672.22757,252.82312a2.88893,2.88893,0,0,0-2.88577,2.88578V375.92611a2.88892,2.88892,0,0,0,2.88577,2.88577H787.65911a2.88892,2.88892,0,0,0,2.88577-2.88577V255.7089a2.88893,2.88893,0,0,0-2.88577-2.88578Z"
       transform="translate(-139.85155 -166.43184)"
       fill="#3f3d56"
       id="path1052" />
    <path
       d="M980.46645,380.73573H865.03492a4.81529,4.81529,0,0,1-4.80963-4.80962V255.7089a4.81529,4.81529,0,0,1,4.80963-4.80963H980.46645a4.81529,4.81529,0,0,1,4.80963,4.80963V375.92611A4.81528,4.81528,0,0,1,980.46645,380.73573ZM865.03492,252.82312a2.88894,2.88894,0,0,0-2.88578,2.88578V375.92611a2.88893,2.88893,0,0,0,2.88578,2.88577H980.46645a2.88892,2.88892,0,0,0,2.88578-2.88577V255.7089a2.88893,2.88893,0,0,0-2.88578-2.88578Z"
       transform="translate(-139.85155 -166.43184)"
       fill="#3f3d56"
       id="path1054" />
    <path
       d="M514.846,454.23394a3.26532,3.26532,0,1,0,0-6.53063H485.54652a3.26531,3.26531,0,0,0,0,6.53063Z"
       transform="translate(-139.85155 -166.43184)"
       fill="#e6e6e6"
       id="path1056" />
    <path
       d="M588.72546,434.99542a3.26531,3.26531,0,1,0,0-6.53062H485.54652a3.26531,3.26531,0,0,0,0,6.53062Z"
       transform="translate(-139.85155 -166.43184)"
       fill="#e6e6e6"
       id="path1058" />
    <path
       d="M707.65336,454.23394a3.26532,3.26532,0,0,0,0-6.53063H678.35387a3.26531,3.26531,0,0,0,0,6.53063Z"
       transform="translate(-139.85155 -166.43184)"
       fill="#e6e6e6"
       id="path1060" />
    <path
       d="M781.53281,434.99542a3.26531,3.26531,0,0,0,0-6.53062H678.35387a3.26531,3.26531,0,0,0,0,6.53062Z"
       transform="translate(-139.85155 -166.43184)"
       fill="#e6e6e6"
       id="path1062" />
    <path
       d="M900.46071,454.23394a3.26532,3.26532,0,0,0,0-6.53063H871.16122a3.26532,3.26532,0,1,0,0,6.53063Z"
       transform="translate(-139.85155 -166.43184)"
       fill="#e6e6e6"
       id="path1064" />
    <path
       d="M974.34016,434.99542a3.26531,3.26531,0,0,0,0-6.53062H871.16122a3.26531,3.26531,0,1,0,0,6.53062Z"
       transform="translate(-139.85155 -166.43184)"
       fill="#e6e6e6"
       id="path1066" />
    <path
       d="M588.72546,416.07508a3.26532,3.26532,0,1,0,0-6.53063H485.54652a3.26531,3.26531,0,0,0,0,6.53063Z"
       transform="translate(-139.85155 -166.43184)"
       fill="#f9a826"
       id="path1068" />
    <path
       d="M781.53281,416.07508a3.26532,3.26532,0,0,0,0-6.53063H678.35387a3.26531,3.26531,0,0,0,0,6.53063Z"
       transform="translate(-139.85155 -166.43184)"
       fill="#f9a826"
       id="path1070" />
    <path
       d="M974.34016,416.07508a3.26531,3.26531,0,0,0,0-6.53063H871.16122a3.26532,3.26532,0,1,0,0,6.53063Z"
       transform="translate(-139.85155 -166.43184)"
       fill="#f9a826"
       id="path1072" />
    <path
       d="M570.2556,357.43737a3.26531,3.26531,0,0,0,0-6.53062H504.01639a3.26531,3.26531,0,1,0,0,6.53062Z"
       transform="translate(-139.85155 -166.43184)"
       fill="#e6e6e6"
       id="path1074" />
    <path
       d="M570.2556,338.19886a3.26531,3.26531,0,0,0,0-6.53062H504.01639a3.26531,3.26531,0,1,0,0,6.53062Z"
       transform="translate(-139.85155 -166.43184)"
       fill="#e6e6e6"
       id="path1076" />
    <circle
       cx="397.28444"
       cy="128.48808"
       r="20.72228"
       fill="#f9a826"
       id="circle1078" />
    <path
       d="M763.063,357.43737a3.26531,3.26531,0,0,0,0-6.53062H696.82373a3.26531,3.26531,0,0,0,0,6.53062Z"
       transform="translate(-139.85155 -166.43184)"
       fill="#e6e6e6"
       id="path1080" />
    <path
       d="M763.063,338.19886a3.26531,3.26531,0,0,0,0-6.53062H696.82373a3.26531,3.26531,0,0,0,0,6.53062Z"
       transform="translate(-139.85155 -166.43184)"
       fill="#e6e6e6"
       id="path1082" />
    <circle
       cx="590.09179"
       cy="128.48808"
       r="20.72228"
       fill="#f9a826"
       id="circle1084" />
    <path
       d="M955.87029,357.43737a3.26531,3.26531,0,1,0,0-6.53062H889.63108a3.26531,3.26531,0,0,0,0,6.53062Z"
       transform="translate(-139.85155 -166.43184)"
       fill="#e6e6e6"
       id="path1086" />
    <path
       d="M955.87029,338.19886a3.26531,3.26531,0,1,0,0-6.53062H889.63108a3.26531,3.26531,0,0,0,0,6.53062Z"
       transform="translate(-139.85155 -166.43184)"
       fill="#e6e6e6"
       id="path1088" />
    <circle
       cx="782.89913"
       cy="128.48808"
       r="20.72228"
       fill="#f9a826"
       id="circle1090" />
  </g>
  <polygon
     id="polygon1092"
     fill="#ffb9b9"
     points="153.95 481.518 165.052 487.573 157.987 510.786 146.886 511.795 140.83 498.675 153.95 481.518" />
  <polygon
     id="polygon1094"
     fill="#ffb9b9"
     points="119.636 527.943 119.636 539.044 102.479 538.035 102.718 528.892 119.636 527.943" />
  <polygon
     id="polygon1096"
     fill="#2f2e41"
     points="157.987 348.297 151.932 423.991 132.756 535.007 102.479 530.97 112.571 443.166 108.534 362.427 157.987 348.297" />
  <path
     id="path1098"
     fill="#2f2e41"
     transform="translate(-139.85155 -166.43184)"
     d="M217.09913,458.21145l72.66561,1.00922,8.07394,55.50842-49.453,23.21264-12.11093,44.40674,61.5639,65.60083-24.22186,30.27735s-34.31432-46.42523-59.54543-72.66559-13.12018-105.97064-13.12018-105.97064Z" />
  <circle
     id="circle1100"
     fill="#ffb9b9"
     r="22.20337"
     cy="126.26344"
     cx="120.64505" />
  <path
     id="path1102"
     fill="#ffb9b9"
     transform="translate(-139.85155 -166.43184)"
     d="M268.57057,307.834v22.20337L253.4319,354.25918s-23.21262-17.15714-18.1664-21.19412,6.05547-35.32355,6.05547-35.32355Z" />
  <polygon
     id="polygon1104"
     fill="#fff"
     points="128.719 159.569 143.858 177.735 137.802 303.89 90.368 302.881 82.294 192.874 92.386 164.615 99.309 155.196 111.562 173.698 128.719 159.569" />
  <path
     id="path1106"
     fill="#2f2e41"
     transform="translate(-139.85155 -166.43184)"
     d="M292.79248,391.60125l11.10168,42.38828-11.10168,42.38824,18.16639,24.22186,16.14791-76.70257s-12.111-62.57309-13.1202-69.63785-3.02772-8.074-3.02772-8.074l-8.074,1.00925Z" />
  <polygon
     id="polygon1108"
     fill="#2f2e41"
     points="72.202 241.317 65.137 254.438 63.118 276.641 67.155 301.872 53.026 325.085 38.897 261.502 54.035 179.753 60.091 179.753 72.202 241.317" />
  <path
     id="path1110"
     fill="#2f2e41"
     transform="translate(-139.85155 -166.43184)"
     d="M297.83867,646.94009s14.12936,4.037,19.17564,5.0462-3.02773,20.18488-3.02773,20.18488-5.0462,26.24035-6.05546,31.28656-8.074,22.20343-17.15717,24.22186-3.02772-35.32355-3.02772-35.32355-4.037-12.1109-4.037-16.14789,6.05546-2.01849,6.05546-2.01849C305.91259,672.17117,297.83867,646.94009,297.83867,646.94009Z" />
  <path
     id="path1112"
     fill="#2f2e41"
     transform="translate(-139.85155 -166.43184)"
     d="M264.53355,724.65182c-1.00925,6.05548,1.00926,6.05548-15.13867,8.074S237.284,721.62411,237.284,721.62411a84.80035,84.80035,0,0,1,4.037-18.16638c3.02774-8.074,19.17564,2.01849,19.17564,2.01849S265.5428,718.59634,264.53355,724.65182Z" />
  <path
     id="path1114"
     fill="#2f2e41"
     transform="translate(-139.85155 -166.43184)"
     d="M241.29467,298.44634l-.526,8.97562s-6.5124-14.72672-7.52165-29.86536,16.14792-18.16638,26.24036-19.17563S286.737,264.43642,286.737,272.5104s-18.1664,6.05548-25.23111,4.037-10.09244,15.13867-10.09244,15.13867l-4.037,1.00925Z" />
  <polygon
     id="polygon1116"
     fill="#fff"
     points="134.676 166.716 128.719 159.569 111.562 173.698 128.719 185.809 134.676 166.716" />
  <polygon
     id="polygon1118"
     fill="#fff"
     points="92.386 164.615 99.451 155.532 111.562 173.698 96.423 184.8 92.386 164.615" />
  <path
     id="path1120"
     fill="#2f2e41"
     transform="translate(-139.85155 -166.43184)"
     d="M295.82019,405.73064l-4.037,38.35129,8.07393,23.21265,5.04622,22.20337s-.00006,21.19415-20.18489,22.20337-37.342-63.5824-37.342-63.5824-3.02773,14.12939-5.04622,22.20337-36.3328,40.36981-36.3328,40.36981-8.07394-1.00928-15.13866-17.15716,14.12942-31.28656,14.12942-31.28656l6.05549-21.19416-2.01849-26.24035L194.8957,346.18523l41.88364-21.69876-4.5416,58.03156,15.13866,45.416,22.708-100.4198,7.56933,5.55085,32.29583,13.12018Z" />
  <polygon
     id="polygon1122"
     fill="#3f3d56"
     points="257.738 567.136 0 567.136 0 565.03 258.12 565.03 257.738 567.136" />
  <polygon
     style="display:none"
     transform="translate(315.16378,21.781371)"
     points="317.087,178.656 396.238,99.504 440.64,143.906 522.004,62.542 523.369,63.907 440.64,146.636 396.238,102.234 317.087,181.385 280.89,145.188 201.256,224.822 154.441,178.007 116.314,216.135 94.595,194.416 26.744,262.267 25.379,260.902 94.595,191.687 116.314,213.405 154.441,175.277 201.256,222.092 280.89,142.458 "
     fill="#f9a826"
     id="polygon1322" />
  <polygon
     transform="translate(317.81714,25.63367)"
     points="201.256,222.092 280.89,142.458 317.087,178.656 396.238,99.504 440.64,143.906 522.004,62.542 523.369,63.907 440.64,146.636 396.238,102.234 317.087,181.385 280.89,145.188 201.256,224.822 154.441,178.007 116.314,216.135 94.595,194.416 26.744,262.267 25.379,260.902 94.595,191.687 116.314,213.405 154.441,175.277 "
     fill="#f9a826"
     id="graph" opacity="0">
    <animate attributeType="CSS" attributeName="opacity" from="0" to="1" dur="5s" fill="freeze" id="graphshow" begin="0;grahphide.end+2s"/>
    <animate attributeType="CSS" attributeName="opacity" from="1" to="0" dur="5s" fill="freeze" id="grahphide" begin="graphshow.end+2s" />
  </polygon>
</svg>
